<svg xmlns="http://www.w3.org/2000/svg" xmlns:xlink="http://www.w3.org/1999/xlink" viewBox="0 0 98.07 72.7"><defs><style>.cls-1{fill:none;}.cls-2{isolation:isolate;}.cls-3{fill:url(#Naamloos_verloop_25);}.cls-4{fill:url(#Naamloos_verloop_24);}.cls-5{fill:#f9f4c2;}.cls-6{fill:#e5a928;}.cls-7{opacity:0.15;}.cls-8{clip-path:url(#clip-path);}.cls-13,.cls-9{fill:#fff;}.cls-10{opacity:0.24;}.cls-11{clip-path:url(#clip-path-2);}.cls-12{fill:#504f4f;}.cls-13{opacity:0.5;}.cls-14{fill:#ce941f;}.cls-15{opacity:0.2;mix-blend-mode:multiply;}.cls-16{fill:#1d1d1b;}.cls-17{fill:#676665;}.cls-18{fill:#999898;}.cls-19{fill:url(#Naamloos_verloop_24-2);}</style><linearGradient id="Naamloos_verloop_25" x1="49.74" y1="64.51" x2="49.74" y2="18.36" gradientUnits="userSpaceOnUse"><stop offset="0" stop-color="#1d1d1b" stop-opacity="0.12"/><stop offset="1" stop-color="#1d1d1b" stop-opacity="0.05"/></linearGradient><linearGradient id="Naamloos_verloop_24" x1="-149.08" y1="348.62" x2="-149.03" y2="348.53" gradientTransform="matrix(511.94, -2.13, -2.13, -512, 77101.3, 178194.59)" gradientUnits="userSpaceOnUse"><stop offset="0" stop-color="#ffdc73"/><stop offset="1" stop-color="#eab007"/></linearGradient><clipPath id="clip-path"><rect class="cls-1" x="12.83" y="35.95" width="70.92" height="7.47" transform="translate(-14.19 41.56) rotate(-41.13)"/></clipPath><clipPath id="clip-path-2"><rect class="cls-1" x="18.23" y="41.88" width="70.92" height="2.7" transform="translate(-15.19 45.98) rotate(-41.13)"/></clipPath><linearGradient id="Naamloos_verloop_24-2" x1="6.9" y1="37.6" x2="10.11" y2="45.09" gradientTransform="matrix(1, 0, 0, 1, 0, 0)" xlink:href="#Naamloos_verloop_24"/></defs><title>beeldmerk</title><g class="cls-2"><g id="Laag_2" data-name="Laag 2"><g id="Laag_1-2" data-name="Laag 1"><path class="cls-3" d="M72.59,25.57a28.76,28.76,0,1,0-45.7,34.86,28.76,28.76,0,1,0,45.7-34.86Z"/><path id="coin" class="cls-4" d="M77,48.92a28.77,28.77,0,1,1-21.1-34.79A28.78,28.78,0,0,1,77,48.92Z"/><path class="cls-5" d="M22.59,36.73a28.76,28.76,0,0,1,34.78-21.1,28.46,28.46,0,0,1,12.71,6.84A28.76,28.76,0,1,0,29.49,63.18,28.73,28.73,0,0,1,22.59,36.73Z"/><path class="cls-6" d="M75.48,47.42A28.76,28.76,0,0,1,28,61.68,28.77,28.77,0,1,0,68.59,21,28.73,28.73,0,0,1,75.48,47.42Z"/><g class="cls-7"><g class="cls-8"><path id="coin-2" data-name="coin" class="cls-9" d="M77.32,49.32a28.77,28.77,0,1,1-21.1-34.79,28.76,28.76,0,0,1,21.1,34.79Z"/></g></g><g class="cls-10"><g class="cls-11"><path id="coin-3" data-name="coin" class="cls-9" d="M77.32,49.15a28.77,28.77,0,1,1-21.1-34.79,28.77,28.77,0,0,1,21.1,34.79Z"/></g></g><path class="cls-12" d="M66.33,54.34c-3.55-.57-4-1.69-6.42-3.32a15.06,15.06,0,0,0-8.15-2.74,5.82,5.82,0,0,0-2.72.51,5.9,5.9,0,0,0-2.73-.51A15.06,15.06,0,0,0,38.16,51c-2.38,1.63-2.87,2.75-6.42,3.32-3.28.53-8.44-2.88-8.44-2.88s5.55,8.4,14.43,8.4S49,55.24,49,52.54c0,2.7,2.43,7.32,11.31,7.32s14.42-8.4,14.42-8.4S69.61,54.87,66.33,54.34Z"/><path class="cls-13" d="M40.53,36.12a7.1,7.1,0,0,0-7.09,7.09.65.65,0,1,0,1.29,0,5.81,5.81,0,0,1,5.8-5.8.65.65,0,1,0,0-1.29Z"/><path class="cls-14" d="M28,43.21V67.4a.65.65,0,0,0,1.29,0V45a2,2,0,0,0,.65.12,1.86,1.86,0,0,0,.81-.19,9.67,9.67,0,1,0,0-3.5,2,2,0,0,0-.81-.18A1.93,1.93,0,0,0,28,43.21Zm3.87,0a8.38,8.38,0,1,1,8.38,8.38A8.39,8.39,0,0,1,31.86,43.21Z"/><g class="cls-15"><path class="cls-16" d="M77.07,28.45a2.58,2.58,0,0,1-1.92,2.93L51,40.61a7.68,7.68,0,0,1-3.81,0L23,31.38A2.58,2.58,0,0,1,21,28.46Z"/></g><rect class="cls-17" x="5.16" y="10.14" width="5.16" height="23.24"/><path class="cls-18" d="M74.44,12.72l2.63,15.73a2.58,2.58,0,0,1-1.92,2.93L51,37.53a7.92,7.92,0,0,1-3.81,0L23,31.38A2.58,2.58,0,0,1,21,28.46l2.62-15.74Z"/><path class="cls-17" d="M47,25.35,22.34,20.64h0l1.33-7.92H74.44l2.63,15.73a2.58,2.58,0,0,1-1.92,2.93L51,37.53a7.68,7.68,0,0,1-1.91.23V27.88A2.57,2.57,0,0,0,47,25.35Z"/><path class="cls-18" d="M51,.18,97.1,9a1.19,1.19,0,0,1,0,2.34L51,20.1a10.49,10.49,0,0,1-3.87,0L1,11.31A1.19,1.19,0,0,1,1,9L47.1.18A10.49,10.49,0,0,1,51,.18Z"/><path class="cls-19" d="M7.75,30.8h0A5.16,5.16,0,0,1,12.91,36V43.7a2.59,2.59,0,0,1-2.58,2.59H5.16A2.59,2.59,0,0,1,2.58,43.7V36A5.16,5.16,0,0,1,7.75,30.8Z"/></g></g></g></svg>